{"title":"OSU_VS_MINN_10110109","uid":6094462,"size":1511759553,"categoryP":"video","categoryS":"tv_shows","magnet":"?xt=urn:btih:f753accf0d13c53cf59a230d76519dd649955d21&amp;dn=OSU_VS_MINN_10110109&amp;tr=udp%3A%2F%2Ftracker.openbittorrent.com%3A80&amp;tr=udp%3A%2F%2Fopen.demonii.com%3A1337&amp;tr=udp%3A%2F%2Ftracker.coppersurfer.tk%3A6969&amp;tr=udp%3A%2F%2Fexodus.desync.com%3A6969","seeders":0,"leechers":1,"uploader":"thetorrentlord","files":6,"time":1294704285,"description":"This is from the BTN replay. They edited out appx 2-1/2 min of game time in the first half. This was not my edit error. I have included the halftime report as a seperate file.*********************************************************************************************************************************************************************************************************************************************************************************               OSU_VS_Minn_BTN_REPLAY_THEIR_EDIT_First_Half_20110109.avi\nFormat                           : AVI\nFormat/Info                      : Audio Video Interleave\nFile size                        : 538 MiB\nDuration                         : 1h 5mn\nOverall bit rate                 : 1 142 Kbps\nMovie name                       : OSU_VS_Minn_BTN_REPLAY_THEIR_EDIT_First_Half_20110110.mpg\nDirector                         : created.with.SUPER(C).v2010.bld.37\nWriting application              : SUPER(C)   \n\nVideo\nID                               : 0\nFormat                           : MPEG-4 Visual\nFormat profile                   : Simple@L3\nFormat settings, BVOP            : No\nFormat settings, QPel            : No\nFormat settings, GMC             : No warppoints\nFormat settings, Matrix          : Default (H.263)\nCodec ID                         : XVID\nCodec ID/Hint                    : XviD\nDuration                         : 32mn 57s\nBit rate                         : 2 160 Kbps\nWidth                            : 624 pixels\nHeight                           : 352 pixels\nDisplay aspect ratio             : 16:9\nFrame rate                       : 23.976 fps\nColor space                      : YUV\nChroma subsampling               : 4:2:0\nBit depth                        : 8 bits\nScan type                        : Progressive\nBits/(Pixel*Frame)               : 0.410\nStream size                      : 509 MiB (95%)\nWriting library                  : XviD 1.1.2 (UTC 2006-11-01)\n\nAudio\nID                               : 1\nFormat                           : MPEG Audio\nFormat version                   : Version 2\nFormat profile                   : Layer 3\nMode                             : Joint stereo\nMode extension                   : MS Stereo\nCodec ID                         : 55\nCodec ID/Hint                    : MP3\nDuration                         : 1h 5mn\nBit rate mode                    : Constant\nBit rate                         : 112 Kbps\nChannel(s)                       : 2 channels\nSampling rate                    : 22.05 KHz\nStream size                      : 26.4 MiB (5%)\nAlignment                        : Aligned on interleaves\nInterleave, duration             : 26 ms (0.63 video frame)\nInterleave, preload duration     : 26 ms\nWriting library                  : LAME3.98\n\n","torrent":{"xt":"urn:btih:f753accf0d13c53cf59a230d76519dd649955d21","amp;dn":"OSU_VS_MINN_10110109","amp;tr":["udp%3A%2F%2Ftracker.openbittorrent.com%3A80","udp%3A%2F%2Fopen.demonii.com%3A1337","udp%3A%2F%2Ftracker.coppersurfer.tk%3A6969","udp%3A%2F%2Fexodus.desync.com%3A6969"],"infoHash":"f753accf0d13c53cf59a230d76519dd649955d21","infoHashBuffer":{"type":"Buffer","data":[247,83,172,207,13,19,197,60,245,154,35,13,118,81,157,214,73,149,93,33]},"announce":[],"urlList":[]}}